<?xml version="1.0" standalone="no"?>
<!DOCTYPE svg PUBLIC "-//W3C//DTD SVG 20010904//EN"
 "http://www.w3.org/TR/2001/REC-SVG-20010904/DTD/svg10.dtd">
<svg version="1.0" xmlns="http://www.w3.org/2000/svg"
 width="125.000000pt" height="125.000000pt" viewBox="0 0 125.000000 125.000000"
 preserveAspectRatio="xMidYMid meet">
<metadata>
Created by potrace 1.11, written by Peter Selinger 2001-2013
</metadata>
<g transform="translate(0.000000,125.000000) scale(0.100000,-0.100000)"
fill="#000000" stroke="none">
<path d="M0 625 l0 -625 625 0 625 0 0 98 0 97 -17 -34 c-23 -47 -78 -100
-122 -118 -49 -21 -143 -20 -216 1 -55 17 -58 19 -40 31 119 82 185 162 216
267 17 56 21 88 17 167 -3 89 -7 105 -40 172 -39 78 -115 163 -184 206 -118
72 -309 84 -433 28 -35 -16 -87 -48 -115 -71 l-51 -43 -8 27 c-5 15 -9 77 -9
137 -1 107 12 167 56 268 8 16 -3 17 -148 17 l-156 0 0 -625z m701 295 c182
-35 326 -182 361 -370 30 -160 -57 -344 -208 -440 -25 -16 -53 -26 -61 -23
-11 4 -1 14 33 31 106 54 196 181 213 304 46 333 -296 584 -603 440 -35 -16
-84 -50 -110 -74 -26 -25 -49 -41 -52 -37 -7 12 72 86 125 117 51 30 157 61
212 61 20 1 60 -4 90 -9z m84 -79 c84 -39 157 -112 198 -199 29 -60 32 -77 32
-157 0 -80 -4 -97 -31 -156 -37 -77 -114 -159 -185 -195 l-50 -25 -51 37 -50
38 40 12 c64 19 125 59 167 110 37 45 39 50 41 128 2 59 7 84 19 92 17 12 21
54 5 54 -5 0 -16 15 -24 34 -23 55 -86 117 -151 148 -71 33 -162 38 -238 12
-55 -19 -131 -83 -157 -133 l-18 -36 -22 48 -21 47 27 35 c23 30 134 114 153
115 3 1 29 7 56 15 77 23 182 13 260 -24z"/>
<path d="M1076 1199 c49 -74 93 -169 135 -299 l38 -115 1 233 0 232 -104 0
-105 0 35 -51z"/>
<path d="M580 1168 l-23 -63 -21 43 c-26 55 -47 51 -60 -12 -10 -44 -13 -47
-25 -33 -18 23 -41 21 -41 -2 0 -11 10 -45 22 -76 l21 -56 76 7 c94 10 100 10
187 1 l71 -8 21 56 c12 31 22 65 22 76 0 23 -23 25 -41 2 -12 -14 -15 -11 -25
33 -12 60 -33 67 -58 19 -11 -19 -22 -35 -26 -35 -3 0 -14 25 -25 55 -25 76
-46 74 -75 -7z"/>
</g>
</svg>
