<?xml version="1.0" standalone="no"?>
<!DOCTYPE svg PUBLIC "-//W3C//DTD SVG 20010904//EN"
 "http://www.w3.org/TR/2001/REC-SVG-20010904/DTD/svg10.dtd">
<svg version="1.0" xmlns="http://www.w3.org/2000/svg"
 width="512.000000pt" height="512.000000pt" viewBox="0 0 512.000000 512.000000"
 preserveAspectRatio="xMidYMid meet">
<metadata>
Created by potrace 1.11, written by Peter Selinger 2001-2013
</metadata>
<g transform="translate(0.000000,512.000000) scale(0.100000,-0.100000)"
fill="#000000" stroke="none">
<path d="M0 2560 l0 -2560 2560 0 2560 0 0 2560 0 2560 -2560 0 -2560 0 0
-2560z m2633 1615 c77 -54 73 -186 -8 -223 -22 -10 -25 -17 -25 -67 0 -62 -4
-59 108 -70 35 -3 103 -17 150 -31 339 -98 598 -357 667 -670 l16 -70 74 -37
c81 -40 139 -86 160 -127 11 -21 13 -49 8 -114 l-6 -86 59 -26 c343 -150 591
-339 680 -518 34 -70 38 -87 38 -152 0 -41 -4 -78 -9 -83 -6 -5 -155 63 -382
174 -204 101 -374 180 -377 177 -3 -3 -6 -14 -6 -24 0 -10 -21 -41 -47 -69
-55 -59 -160 -113 -301 -156 l-92 -28 266 -266 c235 -235 264 -268 248 -277
-33 -17 -304 -82 -451 -107 -79 -14 -206 -30 -284 -37 l-141 -12 -40 -63
c-175 -276 -584 -278 -754 -3 -39 64 -34 61 -171 76 -62 6 -63 5 -110 -34 -65
-54 -117 -79 -197 -93 -169 -31 -350 61 -417 214 l-24 55 -80 27 c-296 100
-524 254 -596 402 -119 245 136 551 655 783 l98 45 -7 94 -6 94 58 56 c39 38
80 66 124 85 l67 28 12 62 c17 91 65 201 125 292 153 230 430 394 710 421 l80
8 3 53 c3 51 1 56 -33 85 -101 88 -32 250 99 232 21 -3 48 -12 59 -20z"/>
<path d="M3394 2516 c-138 -61 -136 -334 3 -393 98 -40 193 57 193 197 0 99
-42 172 -113 199 -36 14 -45 13 -83 -3z"/>
<path d="M1591 2482 c-83 -87 -82 -241 1 -324 31 -31 45 -38 78 -38 58 0 95
23 127 78 24 40 28 58 28 122 -1 126 -57 200 -154 200 -38 0 -49 -5 -80 -38z"/>
<path d="M2489 2395 c-82 -26 -149 -120 -149 -209 0 -195 247 -292 382 -149
64 67 76 166 30 254 -50 97 -156 138 -263 104z"/>
</g>
</svg>
